<mxfile host="app.diagrams.net" modified="2021-10-11T08:20:20.750Z" agent="5.0 (Windows NT 10.0; Win64; x64) AppleWebKit/537.36 (KHTML, like Gecko) Chrome/94.0.4606.71 Safari/537.36" etag="m-3-bmQpROoREob429eE" version="15.5.0" type="github">
  <diagram id="6UOroNJXbiZq9FuHnuWe" name="Page-1">
    <mxGraphModel dx="1038" dy="491" grid="1" gridSize="10" guides="1" tooltips="1" connect="1" arrows="1" fold="1" page="1" pageScale="1" pageWidth="827" pageHeight="1169" math="0" shadow="0">
      <root>
        <mxCell id="0" />
        <mxCell id="1" parent="0" />
        <mxCell id="4kn0Fe2N6T0CBwEDAQPX-1" value="" style="rounded=1;whiteSpace=wrap;html=1;fillColor=#fff2cc;strokeColor=#d6b656;shadow=0;sketch=0;strokeWidth=2;" vertex="1" parent="1">
          <mxGeometry x="310" y="210" width="212.5" height="140" as="geometry" />
        </mxCell>
        <mxCell id="4kn0Fe2N6T0CBwEDAQPX-6" value="" style="edgeStyle=elbowEdgeStyle;elbow=horizontal;endArrow=classic;html=1;rounded=0;fontSize=16;strokeWidth=2;" edge="1" parent="1">
          <mxGeometry width="50" height="50" relative="1" as="geometry">
            <mxPoint x="330" y="320" as="sourcePoint" />
            <mxPoint x="550" y="240" as="targetPoint" />
            <Array as="points">
              <mxPoint x="436" y="290" />
              <mxPoint x="366" y="230" />
            </Array>
          </mxGeometry>
        </mxCell>
        <mxCell id="4kn0Fe2N6T0CBwEDAQPX-12" value="&lt;span lang=&quot;EN-US&quot; style=&quot;font-family: &amp;#34;times new roman&amp;#34; , serif&quot;&gt;&lt;span style=&quot;font-family: &amp;#34;helvetica&amp;#34; ; font-size: 16px ; text-align: left&quot;&gt;&lt;b&gt;tanh&lt;/b&gt;&lt;/span&gt;&lt;br&gt;&lt;/span&gt;" style="rounded=0;whiteSpace=wrap;html=1;fillColor=#dae8fc;strokeColor=#6c8ebf;" vertex="1" parent="1">
          <mxGeometry x="415" y="260" width="39" height="27" as="geometry" />
        </mxCell>
        <mxCell id="4kn0Fe2N6T0CBwEDAQPX-17" value="" style="endArrow=classic;html=1;rounded=0;fontSize=16;strokeWidth=2;edgeStyle=orthogonalEdgeStyle;" edge="1" parent="1">
          <mxGeometry width="50" height="50" relative="1" as="geometry">
            <mxPoint x="480" y="240" as="sourcePoint" />
            <mxPoint x="480" y="180" as="targetPoint" />
          </mxGeometry>
        </mxCell>
        <mxCell id="4kn0Fe2N6T0CBwEDAQPX-19" value="&lt;b&gt;&lt;i&gt;h&lt;sub&gt;t&lt;/sub&gt;&lt;/i&gt;&lt;/b&gt;" style="text;html=1;strokeColor=none;fillColor=none;align=center;verticalAlign=middle;whiteSpace=wrap;rounded=0;shadow=0;glass=0;sketch=0;fontSize=16;" vertex="1" parent="1">
          <mxGeometry x="464" y="140" width="35" height="30" as="geometry" />
        </mxCell>
        <mxCell id="4kn0Fe2N6T0CBwEDAQPX-21" value="&lt;b&gt;&lt;i&gt;C&lt;sub&gt;t-1&lt;/sub&gt;&lt;/i&gt;&lt;/b&gt;" style="text;html=1;strokeColor=none;fillColor=none;align=center;verticalAlign=middle;whiteSpace=wrap;rounded=0;shadow=0;glass=0;sketch=0;fontSize=16;" vertex="1" parent="1">
          <mxGeometry x="266" y="210" width="35" height="30" as="geometry" />
        </mxCell>
        <mxCell id="4kn0Fe2N6T0CBwEDAQPX-22" value="&lt;b&gt;&lt;i&gt;x&lt;sub&gt;t&lt;/sub&gt;&lt;/i&gt;&lt;/b&gt;" style="text;html=1;strokeColor=none;fillColor=none;align=center;verticalAlign=middle;whiteSpace=wrap;rounded=0;shadow=0;glass=0;sketch=0;fontSize=16;" vertex="1" parent="1">
          <mxGeometry x="290" y="360" width="35" height="30" as="geometry" />
        </mxCell>
        <mxCell id="4kn0Fe2N6T0CBwEDAQPX-31" value="" style="endArrow=none;html=1;rounded=0;edgeStyle=orthogonalEdgeStyle;strokeWidth=2;" edge="1" parent="1">
          <mxGeometry width="50" height="50" relative="1" as="geometry">
            <mxPoint x="284" y="250" as="sourcePoint" />
            <mxPoint x="351.5" y="320" as="targetPoint" />
          </mxGeometry>
        </mxCell>
        <mxCell id="4kn0Fe2N6T0CBwEDAQPX-32" value="" style="endArrow=none;html=1;rounded=0;strokeWidth=2;edgeStyle=orthogonalEdgeStyle;" edge="1" parent="1">
          <mxGeometry width="50" height="50" relative="1" as="geometry">
            <mxPoint x="330" y="320" as="sourcePoint" />
            <mxPoint x="331" y="390" as="targetPoint" />
            <Array as="points">
              <mxPoint x="331" y="320" />
            </Array>
          </mxGeometry>
        </mxCell>
        <mxCell id="4kn0Fe2N6T0CBwEDAQPX-34" value="&lt;b&gt;&lt;i&gt;C&lt;sub&gt;t&lt;/sub&gt;&lt;/i&gt;&lt;/b&gt;" style="text;html=1;strokeColor=none;fillColor=none;align=center;verticalAlign=middle;whiteSpace=wrap;rounded=0;shadow=0;glass=0;sketch=0;fontSize=16;" vertex="1" parent="1">
          <mxGeometry x="550" y="230" width="35" height="30" as="geometry" />
        </mxCell>
      </root>
    </mxGraphModel>
  </diagram>
</mxfile>
